<svg xmlns="http://www.w3.org/2000/svg" viewBox="0 0 61 61" fill="#1f1f1f" xmlns:v="https://vecta.io/nano"><path d="M23.91 11.2v1.553h-4.635v12.264h-1.639V12.752h-4.661V11.2H23.91zm1.524 13.817V11.2h1.639v6.08h7.46V11.2h1.639v13.817h-1.639v-6.178h-7.46v6.178h-1.639zm13.141 0V11.2h8.509v1.553H40.22v4.527h6.099v1.559H40.22v4.619h7.145v1.559h-8.79zM17.99 37.236l-.462.593-.465.593a3.58 3.58 0 0 0-.414-.344 3.53 3.53 0 0 0-.584-.348 3.91 3.91 0 0 0-.73-.265c-.28-.074-.568-.111-.858-.108-.765 0-1.329.217-1.699.638a2.31 2.31 0 0 0-.552 1.54c-.009.288.056.573.188.829.123.221.291.413.494.564a3.25 3.25 0 0 0 .689.383l.8.297 1.403.564a6.17 6.17 0 0 1 1.39.829c.432.339.794.758 1.068 1.234a3.42 3.42 0 0 1 .424 1.757 3.77 3.77 0 0 1-.319 1.594 3.62 3.62 0 0 1-.889 1.215 3.95 3.95 0 0 1-1.314.772 4.74 4.74 0 0 1-1.594.265 5.1 5.1 0 0 1-1.46-.207 6.38 6.38 0 0 1-1.304-.532 6.17 6.17 0 0 1-1.055-.721 3.61 3.61 0 0 1-.72-.791l1.026-1.027a6.87 6.87 0 0 0 .612.583 6.03 6.03 0 0 0 .768.58c.285.174.59.313.909.414a3.48 3.48 0 0 0 1.065.156 3.28 3.28 0 0 0 .988-.147 2.58 2.58 0 0 0 .864-.437 2.05 2.05 0 0 0 .583-.721 2.23 2.23 0 0 0 .217-1.004 2.02 2.02 0 0 0-.386-1.275c-.262-.333-.587-.612-.956-.819-.373-.219-.769-.397-1.18-.532l-1.068-.376a11.72 11.72 0 0 1-.848-.373 3.99 3.99 0 0 1-.937-.638 3.63 3.63 0 0 1-.762-1.007 3.32 3.32 0 0 1-.319-1.473 3.96 3.96 0 0 1 .179-1.301 3.27 3.27 0 0 1 .638-1.186 3.35 3.35 0 0 1 1.205-.867c.581-.241 1.207-.357 1.836-.338.557.005 1.111.099 1.639.277a5.97 5.97 0 0 1 1.891 1.161h0zm3.118 12.459v-13.82h8.509v1.559H22.75v4.521h6.099v1.562H22.75v4.623h7.144v1.559l-8.786-.003zm11.372 0v-13.82h1.632v12.264h7.148v1.559l-8.78-.003zm10.24 0v-13.82h8.509v1.559h-6.883v4.521h6.099v1.562h-6.099v6.179H42.72zM6.81 30.484a1.13 1.13 0 0 1-.092.44 1.17 1.17 0 0 1-.249.367c-.108.103-.233.186-.37.245a1.2 1.2 0 0 1-.797.045c-.098-.03-.191-.073-.277-.128-.077-.05-.147-.111-.207-.182a.69.69 0 0 1-.124-.201v.124.124.268h-.23v-4.431h.249v2.471a.86.86 0 0 0-.016.134v.131c.03-.074.072-.142.124-.201a.98.98 0 0 1 .214-.179 1.08 1.08 0 0 1 .281-.131c.103-.034.21-.052.319-.051a1.15 1.15 0 0 1 .456.093 1.18 1.18 0 0 1 .37.249c.106.105.19.23.249.367a1.12 1.12 0 0 1 .102.446zm-.249 0a.91.91 0 0 0-.073-.357c-.048-.113-.11-.208-.191-.293a.83.83 0 0 0-.29-.195.91.91 0 0 0-.363-.073.99.99 0 0 0-.367.073c-.109.044-.208.111-.29.195s-.146.185-.191.293a.9.9 0 0 0-.07.357.89.89 0 0 0 .057.357 1 1 0 0 0 .191.29.91.91 0 0 0 .29.194.94.94 0 0 0 .367.07.91.91 0 0 0 .363-.07.89.89 0 0 0 .29-.194 1 1 0 0 0 .191-.29.89.89 0 0 0 .086-.357h0zm4.553-.325l-.918.364-.918.367a.85.85 0 0 0 .319.367.95.95 0 0 0 .41.135.96.96 0 0 0 .428-.059.85.85 0 0 0 .281-.185l.076.093.077.092a1.23 1.23 0 0 1-.348.23 1.08 1.08 0 0 1-.424.083c-.155.004-.309-.024-.453-.083a1.15 1.15 0 0 1-.618-.638c-.062-.139-.096-.288-.099-.44a1.14 1.14 0 0 1 .089-.45 1.2 1.2 0 0 1 .249-.367c.107-.104.233-.187.37-.245a1.13 1.13 0 0 1 .462-.093.93.93 0 0 1 .338.061 1.09 1.09 0 0 1 .293.172c.089.076.167.164.233.261a1.23 1.23 0 0 1 .153.335h0zm-1.017-.593a.92.92 0 0 0-.338.064.78.78 0 0 0-.277.175.92.92 0 0 0-.194.258.99.99 0 0 0-.092.319v.137c0 .045 0 .092.016.134l.794-.319.8-.319a.87.87 0 0 0-.29-.319.75.75 0 0 0-.418-.131h0zm3.012.918a1.12 1.12 0 0 1 .093-.446 1.17 1.17 0 0 1 .249-.367 1.18 1.18 0 0 1 .37-.249 1.15 1.15 0 0 1 .456-.092.99.99 0 0 1 .319.051 1.08 1.08 0 0 1 .281.131.9.9 0 0 1 .21.182.83.83 0 0 1 .127.204v-.258c0-.086 0-.175.016-.261h.201v2.232h-.223v-.268-.124-.124a.69.69 0 0 1-.124.201 1 1 0 0 1-.207.182 1.14 1.14 0 0 1-.277.128 1.2 1.2 0 0 1-.797-.045c-.137-.059-.262-.143-.37-.245a1.16 1.16 0 0 1-.229-.389 1.13 1.13 0 0 1-.093-.44h0zm.249 0a.91.91 0 0 0 .073.357.93.93 0 0 0 .191.29c.081.084.181.15.29.195a.97.97 0 0 0 .727 0 .9.9 0 0 0 .485-.485.88.88 0 0 0 .07-.357.9.9 0 0 0-.07-.357.93.93 0 0 0-.194-.293c-.083-.084-.182-.149-.29-.195-.115-.048-.239-.073-.364-.073a.94.94 0 0 0-.363.073.83.83 0 0 0-.29.195c-.082.084-.147.184-.191.293s-.073.234-.073.357h0zm6.338 1.138h-.249v-.319l.019-.268a.95.95 0 0 1-.383.453 1.05 1.05 0 0 1-.59.169.72.72 0 0 1-.516-.182.7.7 0 0 1-.201-.481V29.4h.249v1.524c.012.12.063.232.147.319a.5.5 0 0 0 .376.153.98.98 0 0 0 .344-.061c.106-.04.204-.097.29-.169a.82.82 0 0 0 .198-.255.74.74 0 0 0 .067-.306v-1.227h.249v2.244zm2.939-3.692h.249v1.454h.682v.242h-.685V31.6h-.245v-1.973h-.517v-.242h.517V27.93zm3.434 5.149h-.245l.367-.733.37-.736L26 30.497l-.561-1.119h.261l.51.995c.191.332.319.666.478 1.001l.485-1.001.507-.995h.258l-.921 1.849-.947 1.852zm9.972-2.824v.236a1.05 1.05 0 0 1-.112.469l.191.319.194.319-.096.064a.87.87 0 0 1-.096.067l-.159-.261-.159-.255c-.11.142-.251.256-.413.334s-.339.118-.518.116a1.11 1.11 0 0 1-.443-.099 1.3 1.3 0 0 1-.367-.245 1.17 1.17 0 0 1-.249-.367c-.062-.143-.093-.297-.093-.453a1.15 1.15 0 0 1 .07-.405 1.1 1.1 0 0 1 .204-.344 1.15 1.15 0 0 1 .685-.389l-.223-.348-.207-.348a1.28 1.28 0 0 1-.15-.367c-.024-.123-.024-.25 0-.373a.85.85 0 0 1 .137-.344c.084-.115.193-.21.319-.277a.82.82 0 0 1 .338-.121 1.11 1.11 0 0 1 .341 0 1.62 1.62 0 0 1 .319.096c.089.04.175.086.258.137-.02.032-.037.066-.051.102a.97.97 0 0 1-.051.099l-.226-.115a1.06 1.06 0 0 0-.252-.083c-.084-.018-.17-.023-.255-.016a.6.6 0 0 0-.255.089c-.094.051-.176.123-.238.21s-.103.188-.12.294c-.021.208.03.417.143.593l.618 1.007.619 1.004a1.67 1.67 0 0 0 .07-.214 1.75 1.75 0 0 0 .038-.23v-.249a.83.83 0 0 1 .073-.319c.029-.065.077-.119.137-.156a.32.32 0 0 1 .179-.051h.418v.242h-.319a.24.24 0 0 0-.245.137 1.33 1.33 0 0 0-.057.494h0zm-2.085.236a.91.91 0 0 0 .073.357.94.94 0 0 0 .191.29.86.86 0 0 0 .29.194.96.96 0 0 0 .42.069.97.97 0 0 0 .409-.12.87.87 0 0 0 .319-.319l-.421-.676-.421-.692a1 1 0 0 0-.341.093.92.92 0 0 0-.274.191.83.83 0 0 0-.179.281.9.9 0 0 0-.067.332h0zm10.205.71l.08.092a.92.92 0 0 1 .073.092c-.103.078-.217.141-.338.185a1.15 1.15 0 0 1-.848-.022 1.28 1.28 0 0 1-.367-.245 1.17 1.17 0 0 1-.249-.367 1.12 1.12 0 0 1-.092-.453c.001-.156.032-.307.092-.449a1.1 1.1 0 0 1 .249-.367 1.21 1.21 0 0 1 .367-.245 1.12 1.12 0 0 1 .453-.092 1.18 1.18 0 0 1 .402.067 1.2 1.2 0 0 1 .338.188l-.08.092-.08.089c-.08-.063-.169-.112-.265-.147a.91.91 0 0 0-.319-.054.89.89 0 0 0-.36.073c-.108.044-.206.11-.287.195a.96.96 0 0 0-.194.293.9.9 0 0 0-.07.357.91.91 0 0 0 .07.357c.047.108.112.206.194.29a.86.86 0 0 0 .287.195c.156.066.327.089.495.067s.327-.088.461-.192h-.013zm2.209-.717a1.12 1.12 0 0 1 .092-.446 1.17 1.17 0 0 1 1.074-.708.99.99 0 0 1 .319.051 1.11 1.11 0 0 1 .277.131c.08.049.151.11.21.182a.76.76 0 0 1 .127.204v-.258-.261h.201v2.232h-.226v-.268-.124-.124c-.027.074-.068.142-.121.201a1.04 1.04 0 0 1-.207.182 1.11 1.11 0 0 1-.277.128 1.16 1.16 0 0 1-.341.048 1.15 1.15 0 0 1-.456-.093 1.25 1.25 0 0 1-.37-.245 1.17 1.17 0 0 1-.249-.367c-.05-.149-.069-.306-.054-.462h0zm.249 0a.91.91 0 0 0 .265.638c.082.084.181.151.29.194a.91.91 0 0 0 .363.07.89.89 0 0 0 .36-.07.91.91 0 0 0 .29-.194c.083-.084.15-.182.198-.29a.88.88 0 0 0 .07-.357.97.97 0 0 0-.07-.357c-.047-.113-.114-.209-.198-.293a.86.86 0 0 0-.29-.194.89.89 0 0 0-.36-.073.91.91 0 0 0-.354.093c-.11.043-.209.109-.29.194a.96.96 0 0 0-.274.641zm5.792-.912a1.06 1.06 0 0 0-.354.07.91.91 0 0 0-.28.166.78.78 0 0 0-.188.255.73.73 0 0 0-.073.319v1.215h-.249v-2.232h.226v.389.185a.99.99 0 0 1 .392-.453c.16-.104.345-.163.536-.169l-.01.255zm4.199.587l-.918.363-.918.367a.86.86 0 0 0 .319.367.89.89 0 0 0 .497.14.87.87 0 0 0 .344-.064.8.8 0 0 0 .277-.185l.08.093.077.093c-.103.095-.222.171-.351.226-.135.056-.281.084-.427.083a1.22 1.22 0 0 1-.437-.08c-.139-.055-.26-.143-.367-.245a1.17 1.17 0 0 1-.271-.392 1.12 1.12 0 0 1-.092-.453 1.17 1.17 0 0 1 .092-.45 1.1 1.1 0 0 1 .249-.367 1.21 1.21 0 0 1 .367-.245 1.14 1.14 0 0 1 .453-.093.89.89 0 0 1 .338.061 1.04 1.04 0 0 1 .293.172 1.18 1.18 0 0 1 .389.596l.006.013zm-1.02-.593c-.115 0-.228.021-.335.064a.82.82 0 0 0-.28.175.85.85 0 0 0-.191.258c-.05.1-.081.208-.092.319a.98.98 0 0 0 0 .137.85.85 0 0 0 .016.134l.794-.319.797-.319c-.068-.13-.167-.239-.29-.319a.74.74 0 0 0-.418-.131zM61 61H0V0h61v61zM1.658 59.342h57.684V1.658H1.658v57.684z"/></svg>