<svg xmlns="http://www.w3.org/2000/svg" width="41" height="31" fill="none" xmlns:v="https://vecta.io/nano"><path fill-rule="evenodd" d="M18.379.081c-2.169.218-4.752.972-6.81 1.987-2.121 1.046-3.821 2.266-5.492 3.941C.942 11.159-1.121 18.585.59 25.761c.379 1.588 1.103 3.514 1.78 4.737l.278.502h17.854 17.854l.401-.823c1.346-2.764 2.107-5.748 2.227-8.738.197-4.93-1.441-9.865-4.589-13.819a26.28 26.28 0 0 0-3.026-3.051A21 21 0 0 0 22.471.072a27.54 27.54 0 0 0-4.092.009zm3.932 2.482a17.9 17.9 0 0 1 10.759 5.01 18.03 18.03 0 0 1 5.299 10.009c.247 1.413.307 3.859.127 5.182-.278 2.044-.703 3.584-1.446 5.243l-.225.502H20.573 4.321l-.127-.195c-.329-.503-.987-2.485-1.27-3.822-.37-1.751-.491-4.251-.288-5.946A18.6 18.6 0 0 1 6.48 9.298c3.71-4.727 9.81-7.323 15.83-6.736zm-7.538 3.169l-3.87 9.762-3.743 9.441-1.02.022-1.02.023v.801.801h5.488 5.488v-.801-.801l-1.065-.022-1.065-.022 1.06-2.973 1.085-3.028c.014-.03 1.016 1.66 2.227 3.756l2.243 3.808c.023-.002.979-1.701 2.125-3.775l2.127-3.773c.032-.001 1.541 4.173 2.142 5.925.026.077-.219.1-1.056.1h-1.09v.803.803h5.448 5.448v-.803-.803l-.941-.001-.941-.001-3.77-9.741-3.889-9.764c-.085-.016-.907 1.525-2.829 5.303l-2.761 5.379c-.028.029-1.097-1.953-2.375-4.406l-2.821-5.396-.497-.937-.128.321z" fill="#086e80"/></svg>