<svg xmlns="http://www.w3.org/2000/svg" width="27" height="34" fill="none" xmlns:v="https://vecta.io/nano"><path d="M13.5 34c-2.436-2.035-4.694-4.265-6.75-6.668C3.664 23.723 0 18.348 0 13.226c-.001-2.616.79-5.173 2.273-7.348s3.592-3.871 6.06-4.872 5.183-1.263 7.803-.752a13.59 13.59 0 0 1 6.914 3.622 13.12 13.12 0 0 1 2.931 4.288c.678 1.605 1.024 3.326 1.018 5.062 0 5.122-3.664 10.496-6.75 14.105A56.83 56.83 0 0 1 13.5 34zm0-26.439A5.85 5.85 0 0 0 9.409 9.22c-1.085 1.062-1.695 2.504-1.695 4.006s.61 2.944 1.695 4.006a5.85 5.85 0 0 0 4.091 1.659 5.85 5.85 0 0 0 4.091-1.659c1.085-1.062 1.695-2.503 1.695-4.006s-.61-2.944-1.695-4.006A5.85 5.85 0 0 0 13.5 7.561z" fill="#086e80"/></svg>