<svg xmlns="http://www.w3.org/2000/svg" width="11" height="9" fill="none" xmlns:v="https://vecta.io/nano"><path d="M2.676 9c-.507 0-.925-.103-1.255-.31a2.63 2.63 0 0 1-.826-.828C.352 7.494.187 7.08.099 6.621A8.83 8.83 0 0 1 0 5.379c0-1.126.275-2.161.826-3.103S2.235.575 3.402 0L3.7.621C3.039.92 2.466 1.379 1.982 2s-.749 1.253-.793 1.897a3.45 3.45 0 0 0 .066.966 1.99 1.99 0 0 1 1.453-.586c.639 0 1.178.207 1.619.621s.661.989.661 1.724c0 .713-.231 1.287-.694 1.724A2.21 2.21 0 0 1 2.676 9zm6.012 0c-.507 0-.925-.103-1.255-.31a2.63 2.63 0 0 1-.826-.828 3.4 3.4 0 0 1-.495-1.241c-.066-.46-.099-.874-.099-1.241 0-1.126.275-2.161.826-3.103S8.247.575 9.414 0l.297.621A4.54 4.54 0 0 0 7.994 2c-.484.621-.749 1.253-.793 1.897-.022.345 0 .667.066.966a1.99 1.99 0 0 1 1.453-.586c.639 0 1.178.207 1.619.621S11 5.885 11 6.621c0 .713-.231 1.287-.694 1.724A2.21 2.21 0 0 1 8.688 9z" fill="#086e80"/></svg>