<svg xmlns="http://www.w3.org/2000/svg" width="34" height="29" fill="none" xmlns:v="https://vecta.io/nano"><path d="M31.559 1c.986 0 1.73.87 1.332 2.488l-4.827 22.879c-.337 1.627-1.315 2.018-2.664 1.261l-11.513-8.551c-.045-.032-.081-.075-.106-.124a.35.35 0 0 1 .106-.442L27.182 6.437c.606-.539-.13-.8-.925-.313L9.57 16.711c-.051.033-.108.054-.168.062s-.121.001-.178-.018L2.14 14.502c-1.574-.461-1.574-1.549.355-2.323L30.841 1.183A1.86 1.86 0 0 1 31.559 1h0z" stroke="#086e80" stroke-width="1.5" stroke-linejoin="round"/></svg>