<svg xmlns="http://www.w3.org/2000/svg" width="30" height="30" fill="none" xmlns:v="https://vecta.io/nano"><path d="M15.006 1c-2.433.003-4.823.638-6.936 1.844a14.02 14.02 0 0 0-5.114 5.034 14.01 14.01 0 0 0-.229 13.868L1 29l7.257-1.726a14.01 14.01 0 0 0 12.305.572 14 14 0 0 0 7.998-9.364 14 14 0 0 0 .15-6.318 13.99 13.99 0 0 0-2.645-5.74c-1.308-1.687-2.984-3.052-4.901-3.993A14.01 14.01 0 0 0 15.006 1zM8.003 7.362h3.818a.65.65 0 0 1 .652.651 6.77 6.77 0 0 0 .43 2.546c.131.272.16.583.081.874s-.261.545-.511.714l-1.336 1.302a12.11 12.11 0 0 0 2.293 3.119 12.14 12.14 0 0 0 3.107 2.338l1.303-1.335c.651-.651.951-.651 1.59-.43a6.78 6.78 0 0 0 2.547.43c.17.008.331.079.452.2s.192.282.2.452v3.816c-.008.17-.079.331-.2.452s-.282.192-.452.2a15.43 15.43 0 0 1-10.189-4.454c-2.705-2.72-4.294-6.353-4.456-10.184a.7.7 0 0 1 .671-.691z" stroke="#086e80" stroke-width="1.5" stroke-linejoin="round"/></svg>